<svg width="582" height="546" xmlns="http://www.w3.org/2000/svg" xmlns:xlink="http://www.w3.org/1999/xlink"><defs><linearGradient x1="38.809%" y1="55.755%" x2="8.415%" y2="116.349%" id="a"><stop stop-color="#FFF" offset="0%"/><stop stop-color="#D9E9FF" offset="100%"/></linearGradient><linearGradient x1="30.968%" y1="3.768%" x2="69.042%" y2="96.236%" id="b"><stop stop-color="#C444FB" offset="0%"/><stop stop-color="#5B56D7" offset="100%"/></linearGradient><linearGradient x1="0%" y1="50.009%" x2="100%" y2="50.009%" id="e"><stop stop-color="#F37D6E" offset="0%"/><stop stop-color="#EF5A90" offset="100%"/></linearGradient><linearGradient x1="0%" y1="50%" x2="100%" y2="50%" id="f"><stop stop-color="#F37D6E" offset="0%"/><stop stop-color="#EF5A90" offset="100%"/></linearGradient><linearGradient x1="-115.384%" y1="50%" x2="100%" y2="50%" id="g"><stop stop-color="#5B56D7" offset="0%"/><stop stop-color="#C444FB" offset="100%"/></linearGradient><linearGradient x1="0%" y1="48.544%" x2="160.065%" y2="50%" id="h"><stop stop-color="#FA742B" offset="0%"/><stop stop-color="#FFE985" offset="100%"/></linearGradient><linearGradient x1="36.616%" y1="55.755%" x2=".267%" y2="116.349%" id="i"><stop stop-color="#FFF" offset="0%"/><stop stop-color="#D9E9FF" offset="100%"/></linearGradient><linearGradient x1="50%" y1="0%" x2="50%" y2="100%" id="j"><stop stop-color="#3CC2FF" offset="0%"/><stop stop-color="#3D69FF" offset="100%"/></linearGradient><linearGradient x1="50%" y1="0%" x2="50%" y2="100%" id="m"><stop stop-color="#C2E998" offset="0%"/><stop stop-color="#02CC87" offset="100%"/></linearGradient><linearGradient x1="50%" y1="0%" x2="50%" y2="100%" id="p"><stop stop-color="#FFDADA" offset="0%"/><stop stop-color="#FFA2A2" offset="100%"/></linearGradient><linearGradient x1="50%" y1="0%" x2="50%" y2="100%" id="s"><stop stop-color="#2DE09A" offset="0%"/><stop stop-color="#00AB71" offset="100%"/></linearGradient><linearGradient x1="50%" y1="0%" x2="50%" y2="100%" id="x"><stop stop-color="#FFDADA" offset="0%"/><stop stop-color="#FFA2A2" offset="100%"/></linearGradient><linearGradient x1="50%" y1="0%" x2="50%" y2="100%" id="A"><stop stop-color="#FFDADA" offset="0%"/><stop stop-color="#FFA2A2" offset="100%"/></linearGradient><path d="M8.422 241.649c-.502-22.221-1.357-38.688-2.566-49.4-4.303-38.13-10.216-59.883 0-74.197 0-2.156 1.404-26.296 0-72.984C5.592 36.295 4.439 21.272 2.396 0h85.698c2.048 24.041 2.892 46.246 2.532 66.616-.54 30.554-2.721 50.422-4.779 60.58-2.058 10.16-3.565 7.398-7.22 24.631-3.653 17.233-4.343 21.334-6.139 38.257-1.196 11.282.304 28.47 4.503 51.565-3.159 4.071-6.325 6.107-9.498 6.107-3.173 0-10.398-2.036-21.674-6.107 1.746-9.86 2.569-17.293 2.468-22.298-.492-24.419-3.397-43.981-2.468-54.213 1.214-13.378 4.094-26.025 8.641-37.941l-8.641-78.58-1.671 31.276-4.553 34.04-6 13.264c-1.313 24.2-2.136 42.34-2.467 54.42-.332 12.079-1.021 26.135-2.068 42.17l4.726 13.623c1.182 6.778-.394 10.529-4.726 11.253-4.332.723-11.21-1.615-20.638-7.014z" id="q"/><path d="M14.056.058C7.04 1.018.83 7.772.83 27.385c0 19.612 7.762 24.443 13.225 40.321 5.462 15.879 5.462 23.666 12.522 32.38 7.06 8.713 12.424 10.641 17.025 10.641 4.601 0 5.663-.615 15.971-8.915 10.308-8.3 10.584-9.418 17.994-18.523 4.94-6.07 11.87-16.01 20.79-29.821-6.925-5.041-11.023-7.562-12.296-7.562-.98 0-7.236 8.718-21.694 19.947-2.868 2.228-8.256 5.034-16.164 8.416l-8.76-24.504c-.907-14.162-2.525-24.29-4.853-30.382C31.098 10.245 21.07-.903 14.056.058z" id="t"/><path d="M14.056.058C7.04 1.018.83 7.772.83 27.385c0 19.612 7.762 24.443 13.225 40.321 5.462 15.879 5.462 23.666 12.522 32.38 7.06 8.713 12.424 10.641 17.025 10.641 4.601 0 5.663-.615 15.971-8.915 10.308-8.3 10.584-9.418 17.994-18.523 4.94-6.07 11.87-16.01 20.79-29.821-6.925-5.041-11.023-7.562-12.296-7.562-.98 0-7.236 8.718-21.694 19.947-2.868 2.228-8.256 5.034-16.164 8.416l-8.76-24.504c-.907-14.162-2.525-24.29-4.853-30.382C31.098 10.245 21.07-.903 14.056.058z" id="v"/><path d="M.393 22.75L32.43.326c2.698.275 4.651.875 5.86 1.798 2.287 1.75 3.276 7.046 2.366 9.423-1.349 3.526-11.132 13.914-29.35 31.164C8.571 37.97 4.934 31.316.392 22.75z" id="y"/><circle id="c" cx="28.083" cy="28.083" r="28.083"/><circle id="k" cx="28.083" cy="28.083" r="28.083"/><circle id="n" cx="28.083" cy="28.083" r="28.083"/></defs><g fill="none" fill-rule="evenodd"><rect fill="url(#a)" fill-rule="nonzero" x="199.45" width="182.515" height="208.858" rx="11.29"/><path d="M318.649 50.662c0-15.51-12.573-28.083-28.083-28.083-15.51 0-28.083 12.573-28.083 28.083 0 15.51 12.573 28.083 28.083 28.083 15.51 0 28.083-12.573 28.083-28.083z" fill="#827977" fill-rule="nonzero"/><circle cx="28.083" cy="28.083" r="28.083" transform="rotate(-90 170.616 -91.868)" fill="url(#b)" fill-rule="nonzero"/><g transform="translate(262.485 22.582)"><mask id="d" fill="#fff"><use xlink:href="#c"/></mask><g mask="url(#d)" fill-rule="nonzero"><path d="M33.192 40.538s7.82 1.143 8.974 2.343c1.006 1.048 3.095 11.082 3.579 13.282H28.082V41.919l5.11-1.381z" fill="#FFF"/><path fill="#D9A78C" d="M23.97 35.349h8.224v9.018H23.97z"/><path d="M38.568 21.434a1.83 1.83 0 00-.194-.014c-.326-9.911-6.408-12.06-10.292-12.06-3.993 0-10.307 2.27-10.307 12.906 0 6.14 2.001 10.166 2.873 11.278.803 1.023 5.321 3.207 7.434 3.207 2.119 0 6.63-2.184 7.433-3.207.587-.75 1.686-2.824 2.34-5.973l.075.016c1.175.162 2.27-1.085 2.445-2.776.176-1.691-.634-3.216-1.807-3.377z" fill="#F2D7BC"/><path d="M15.788 24.802c-.176-1.7.634-3.207 1.809-3.368 1.175-.162 2.27 1.085 2.445 2.776.176 1.69-.634 3.206-1.809 3.368-1.175.162-2.272-1.076-2.445-2.776z" fill="#F2D7BC"/><path d="M22.705 11.583s-3.489 4.146-2.154 7.997c.232 4.6-.231 6.159-1.705 7.42.37-4.451-.074-5.937-1.707-5.416-.669-3.489.773-12.884 5.566-10.001zM33.433 11.583s3.488 4.146 2.151 7.997c-.231 4.6.231 6.159 1.707 7.42-.37-4.451.074-5.937 1.708-5.416.666-3.489-.773-12.884-5.566-10.001z" fill="#690102"/><path d="M22.971 40.538s-7.82 1.143-8.974 2.343c-1.004 1.048-3.095 11.082-3.579 13.282h17.664V41.919l-5.11-1.381z" fill="#FFF"/><path fill="#FFF" d="M33.287 40.327l-5.205 1.067-5.203-1.067 5.203 15.836"/><path fill="url(#e)" d="M17.24 37.748l-.852 10.71 1.284 1.924 1.284-1.925-.849-10.709z" transform="translate(10.41 5.78)"/><path fill="url(#f)" d="M19.077 37.061l-1.405 1.446-1.402-1.446 1.402-1.446z" transform="translate(10.41 5.78)"/><path fill="#B9C7D0" d="M28.082 41.394l4.175-2.112 2.154 1.256-4.472 3.572zM28.082 41.394l-4.176-2.112-2.152 1.256 4.394 3.572z"/><path d="M37.94 13.397C36.296 6.646 26.288 1.344 19.252 11.94c-.45 2.083 1.516 3.07 1.516 3.07s1.311-3.07 7.331-1.654c3.008-.654 5.92-1.143 7.269 1.62 1.349 2.762 2.57-1.58 2.57-1.58zM33.99 32.193c-2.066 0-3.542-1.677-5.908-1.677-2.367 0-3.843 1.677-5.909 1.677-2.263 0-3.685-3.9-4.116-5.27.583 3.933 1.92 6.515 2.591 7.369.803 1.025 5.321 3.206 7.434 3.206 2.119 0 6.63-2.181 7.433-3.206.67-.856 2.01-3.433 2.593-7.371-.428 1.363-1.853 5.272-4.118 5.272z" fill="#690102"/><path d="M28.082 34.07c.694 0 1.26-.297 1.26-.657h-2.507c0 .36.55.657 1.247.657z" fill="#FFF"/></g></g><g transform="translate(226.733 101.606)" fill-rule="nonzero"><rect fill="url(#g)" x="23.52" width="81.85" height="2.822" rx="1.411"/><rect fill="#C4D4E8" x="37.632" y="11.29" width="52.685" height="2.822" rx="1.411"/><path d="M32.623 29.578l1.486 3.148c.103.219.303.37.534.405l3.322.505c.582.089.814.836.393 1.265l-2.404 2.45a.763.763 0 00-.204.657l.568 3.46c.099.605-.51 1.067-1.03.781l-2.97-1.633a.683.683 0 00-.66 0l-2.972 1.633c-.52.286-1.129-.176-1.03-.782l.568-3.46a.763.763 0 00-.204-.656l-2.403-2.45c-.421-.429-.19-1.177.393-1.265l3.322-.505a.712.712 0 00.534-.405l1.485-3.148a.696.696 0 011.272 0zm16.021 0l1.486 3.148c.103.219.303.37.534.405l3.322.505c.582.089.814.836.393 1.265l-2.404 2.45a.763.763 0 00-.203.657l.567 3.46c.1.605-.509 1.067-1.03.781l-2.97-1.633a.683.683 0 00-.66 0l-2.972 1.633c-.52.286-1.128-.176-1.029-.782l.568-3.46a.763.763 0 00-.204-.656l-2.404-2.45c-.421-.429-.189-1.177.393-1.265l3.322-.505a.712.712 0 00.534-.405l1.486-3.148a.696.696 0 011.271 0zm15.994 0l1.486 3.148c.103.219.303.37.534.405l3.322.505c.582.089.814.836.393 1.265l-2.404 2.45a.763.763 0 00-.204.657l.568 3.46c.099.605-.51 1.067-1.03.781l-2.97-1.633a.683.683 0 00-.661 0l-2.971 1.633c-.52.286-1.129-.176-1.03-.782l.568-3.46a.763.763 0 00-.204-.656l-2.403-2.45c-.421-.429-.19-1.177.393-1.265l3.322-.505a.712.712 0 00.534-.405l1.485-3.148a.696.696 0 011.272 0zm15.994 0l1.485 3.148c.103.219.303.37.534.405l3.322.505c.582.089.814.836.393 1.265l-2.403 2.45a.763.763 0 00-.204.657l.567 3.46c.1.605-.509 1.067-1.03.781l-2.97-1.633a.683.683 0 00-.66 0l-2.971 1.633c-.52.286-1.13-.176-1.03-.782l.568-3.46a.763.763 0 00-.204-.656l-2.404-2.45c-.42-.429-.189-1.177.393-1.265l3.322-.505a.712.712 0 00.534-.405l1.486-3.148a.696.696 0 011.272 0zm15.993 0l1.486 3.148c.103.219.303.37.534.405l3.322.505c.582.089.814.836.393 1.265l-2.404 2.45a.763.763 0 00-.204.657l.568 3.46c.1.605-.51 1.067-1.03.781l-2.97-1.633a.683.683 0 00-.66 0l-2.972 1.633c-.52.286-1.128-.176-1.029-.782l.567-3.46a.763.763 0 00-.204-.656l-2.403-2.45c-.421-.429-.189-1.177.393-1.265l3.322-.505a.712.712 0 00.534-.405l1.485-3.148a.696.696 0 011.272 0z" fill="url(#h)"/><path d="M1.411 54.566h125.127a1.411 1.411 0 010 2.823H1.41a1.411 1.411 0 110-2.823zM20.227 66.797h87.495a1.411 1.411 0 010 2.822H20.227a1.411 1.411 0 110-2.822z" fill="#C4D4E8"/></g><g transform="translate(0 54.566)"><rect fill="url(#i)" fill-rule="nonzero" width="182.515" height="190.982" rx="11.29"/><path d="M119.2 49.721c0-15.51-12.574-28.083-28.084-28.083S63.034 34.212 63.034 49.721c0 15.51 12.573 28.083 28.082 28.083 15.51 0 28.083-12.573 28.083-28.083z" fill="#827977" fill-rule="nonzero"/><circle cx="28.083" cy="28.083" r="28.083" transform="rotate(-90 70.42 7.386)" fill="url(#j)" fill-rule="nonzero"/><g transform="translate(63.035 21.641)"><mask id="l" fill="#fff"><use xlink:href="#k"/></mask><g mask="url(#l)" fill-rule="nonzero"><path d="M33.192 40.538s7.82 1.143 8.974 2.343c1.006 1.048 3.095 11.082 3.579 13.282H28.082V41.919l5.11-1.381z" fill="#FFF"/><path fill="#D9A78C" d="M23.97 35.349h8.224v9.018H23.97z"/><path d="M38.568 21.434a1.83 1.83 0 00-.194-.014c-.326-9.911-6.408-12.06-10.292-12.06-3.993 0-10.307 2.27-10.307 12.906 0 6.14 2.001 10.166 2.873 11.278.803 1.023 5.321 3.207 7.434 3.207 2.119 0 6.63-2.184 7.433-3.207.587-.75 1.686-2.824 2.34-5.973l.075.016c1.175.162 2.27-1.085 2.445-2.776.176-1.691-.634-3.216-1.807-3.377z" fill="#F2D7BC"/><path d="M15.788 24.802c-.176-1.7.634-3.207 1.809-3.368 1.175-.162 2.27 1.085 2.445 2.776.176 1.69-.634 3.206-1.809 3.368-1.175.162-2.272-1.076-2.445-2.776z" fill="#F2D7BC"/><path d="M22.705 11.583s-3.489 4.146-2.154 7.997c.232 4.6-.231 6.159-1.705 7.42.37-4.451-.074-5.937-1.707-5.416-.669-3.489.773-12.884 5.566-10.001zM33.433 11.583s3.488 4.146 2.151 7.997c-.231 4.6.231 6.159 1.707 7.42-.37-4.451.074-5.937 1.708-5.416.666-3.489-.773-12.884-5.566-10.001z" fill="#690102"/><path d="M22.971 40.538s-7.82 1.143-8.974 2.343c-1.004 1.048-3.095 11.082-3.579 13.282h17.664V41.919l-5.11-1.381z" fill="#FFF"/><path fill="#FFF" d="M33.287 40.327l-5.205 1.067-5.203-1.067 5.203 15.836"/><path fill="url(#e)" d="M17.24 37.748l-.852 10.71 1.284 1.924 1.284-1.925-.849-10.709z" transform="translate(10.41 5.78)"/><path fill="url(#f)" d="M19.077 37.061l-1.405 1.446-1.402-1.446 1.402-1.446z" transform="translate(10.41 5.78)"/><path fill="#B9C7D0" d="M28.082 41.394l4.175-2.112 2.154 1.256-4.472 3.572zM28.082 41.394l-4.176-2.112-2.152 1.256 4.394 3.572z"/><path d="M37.94 13.397C36.296 6.646 26.288 1.344 19.252 11.94c-.45 2.083 1.516 3.07 1.516 3.07s1.311-3.07 7.331-1.654c3.008-.654 5.92-1.143 7.269 1.62 1.349 2.762 2.57-1.58 2.57-1.58zM33.99 32.193c-2.066 0-3.542-1.677-5.908-1.677-2.367 0-3.843 1.677-5.909 1.677-2.263 0-3.685-3.9-4.116-5.27.583 3.933 1.92 6.515 2.591 7.369.803 1.025 5.321 3.206 7.434 3.206 2.119 0 6.63-2.181 7.433-3.206.67-.856 2.01-3.433 2.593-7.371-.428 1.363-1.853 5.272-4.118 5.272z" fill="#690102"/><path d="M28.082 34.07c.694 0 1.26-.297 1.26-.657h-2.507c0 .36.55.657 1.247.657z" fill="#FFF"/></g></g><g transform="translate(27.283 100.666)" fill-rule="nonzero"><rect fill="url(#g)" x="23.52" width="81.85" height="2.822" rx="1.411"/><rect fill="#C4D4E8" x="37.632" y="11.29" width="52.685" height="2.822" rx="1.411"/><path d="M32.623 29.578l1.486 3.148c.103.219.303.37.534.405l3.322.505c.582.089.814.836.393 1.265l-2.404 2.45a.763.763 0 00-.204.657l.568 3.46c.099.605-.51 1.067-1.03.781l-2.97-1.633a.683.683 0 00-.66 0l-2.972 1.633c-.52.286-1.129-.176-1.03-.782l.568-3.46a.763.763 0 00-.204-.656l-2.403-2.45c-.421-.429-.19-1.177.393-1.265l3.322-.505a.712.712 0 00.534-.405l1.485-3.148a.696.696 0 011.272 0zm16.021 0l1.486 3.148c.103.219.303.37.534.405l3.322.505c.582.089.814.836.393 1.265l-2.404 2.45a.763.763 0 00-.203.657l.567 3.46c.1.605-.509 1.067-1.03.781l-2.97-1.633a.683.683 0 00-.66 0l-2.972 1.633c-.52.286-1.128-.176-1.029-.782l.568-3.46a.763.763 0 00-.204-.656l-2.404-2.45c-.421-.429-.189-1.177.393-1.265l3.322-.505a.712.712 0 00.534-.405l1.486-3.148a.696.696 0 011.271 0zm15.994 0l1.486 3.148c.103.219.303.37.534.405l3.322.505c.582.089.814.836.393 1.265l-2.404 2.45a.763.763 0 00-.204.657l.568 3.46c.099.605-.51 1.067-1.03.781l-2.97-1.633a.683.683 0 00-.661 0l-2.971 1.633c-.52.286-1.129-.176-1.03-.782l.568-3.46a.763.763 0 00-.204-.656l-2.403-2.45c-.421-.429-.19-1.177.393-1.265l3.322-.505a.712.712 0 00.534-.405l1.485-3.148a.696.696 0 011.272 0zm15.994 0l1.485 3.148c.103.219.303.37.534.405l3.322.505c.582.089.814.836.393 1.265l-2.403 2.45a.763.763 0 00-.204.657l.567 3.46c.1.605-.509 1.067-1.03.781l-2.97-1.633a.683.683 0 00-.66 0l-2.971 1.633c-.52.286-1.13-.176-1.03-.782l.568-3.46a.763.763 0 00-.204-.656l-2.404-2.45c-.42-.429-.189-1.177.393-1.265l3.322-.505a.712.712 0 00.534-.405l1.486-3.148a.696.696 0 011.272 0zm15.993 0l1.486 3.148c.103.219.303.37.534.405l3.322.505c.582.089.814.836.393 1.265l-2.404 2.45a.763.763 0 00-.204.657l.568 3.46c.1.605-.51 1.067-1.03.781l-2.97-1.633a.683.683 0 00-.66 0l-2.972 1.633c-.52.286-1.128-.176-1.029-.782l.567-3.46a.763.763 0 00-.204-.656l-2.403-2.45c-.421-.429-.189-1.177.393-1.265l3.322-.505a.712.712 0 00.534-.405l1.485-3.148a.696.696 0 011.272 0z" fill="url(#h)"/><path d="M1.411 54.566h125.127a1.411 1.411 0 010 2.823H1.41a1.411 1.411 0 110-2.823zM20.227 66.797h87.495a1.411 1.411 0 010 2.822H20.227a1.411 1.411 0 110-2.822z" fill="#C4D4E8"/></g></g><g transform="translate(398.9 54.566)"><rect fill="url(#i)" fill-rule="nonzero" width="182.515" height="190.982" rx="11.29"/><path d="M119.2 49.721c0-15.51-12.574-28.083-28.084-28.083S63.034 34.212 63.034 49.721c0 15.51 12.573 28.083 28.082 28.083 15.51 0 28.083-12.573 28.083-28.083z" fill="#827977" fill-rule="nonzero"/><circle cx="28.083" cy="28.083" r="28.083" transform="rotate(-90 70.42 7.386)" fill="url(#m)" fill-rule="nonzero"/><g transform="translate(63.035 21.641)"><mask id="o" fill="#fff"><use xlink:href="#n"/></mask><g mask="url(#o)" fill-rule="nonzero"><path d="M33.192 40.538s7.82 1.143 8.974 2.343c1.006 1.048 3.095 11.082 3.579 13.282H28.082V41.919l5.11-1.381z" fill="#FFF"/><path fill="#D9A78C" d="M23.97 35.349h8.224v9.018H23.97z"/><path d="M38.568 21.434a1.83 1.83 0 00-.194-.014c-.326-9.911-6.408-12.06-10.292-12.06-3.993 0-10.307 2.27-10.307 12.906 0 6.14 2.001 10.166 2.873 11.278.803 1.023 5.321 3.207 7.434 3.207 2.119 0 6.63-2.184 7.433-3.207.587-.75 1.686-2.824 2.34-5.973l.075.016c1.175.162 2.27-1.085 2.445-2.776.176-1.691-.634-3.216-1.807-3.377z" fill="#F2D7BC"/><path d="M15.788 24.802c-.176-1.7.634-3.207 1.809-3.368 1.175-.162 2.27 1.085 2.445 2.776.176 1.69-.634 3.206-1.809 3.368-1.175.162-2.272-1.076-2.445-2.776z" fill="#F2D7BC"/><path d="M22.705 11.583s-3.489 4.146-2.154 7.997c.232 4.6-.231 6.159-1.705 7.42.37-4.451-.074-5.937-1.707-5.416-.669-3.489.773-12.884 5.566-10.001zM33.433 11.583s3.488 4.146 2.151 7.997c-.231 4.6.231 6.159 1.707 7.42-.37-4.451.074-5.937 1.708-5.416.666-3.489-.773-12.884-5.566-10.001z" fill="#690102"/><path d="M22.971 40.538s-7.82 1.143-8.974 2.343c-1.004 1.048-3.095 11.082-3.579 13.282h17.664V41.919l-5.11-1.381z" fill="#FFF"/><path fill="#FFF" d="M33.287 40.327l-5.205 1.067-5.203-1.067 5.203 15.836"/><path fill="url(#e)" d="M17.24 37.748l-.852 10.71 1.284 1.924 1.284-1.925-.849-10.709z" transform="translate(10.41 5.78)"/><path fill="url(#f)" d="M19.077 37.061l-1.405 1.446-1.402-1.446 1.402-1.446z" transform="translate(10.41 5.78)"/><path fill="#B9C7D0" d="M28.082 41.394l4.175-2.112 2.154 1.256-4.472 3.572zM28.082 41.394l-4.176-2.112-2.152 1.256 4.394 3.572z"/><path d="M37.94 13.397C36.296 6.646 26.288 1.344 19.252 11.94c-.45 2.083 1.516 3.07 1.516 3.07s1.311-3.07 7.331-1.654c3.008-.654 5.92-1.143 7.269 1.62 1.349 2.762 2.57-1.58 2.57-1.58zM33.99 32.193c-2.066 0-3.542-1.677-5.908-1.677-2.367 0-3.843 1.677-5.909 1.677-2.263 0-3.685-3.9-4.116-5.27.583 3.933 1.92 6.515 2.591 7.369.803 1.025 5.321 3.206 7.434 3.206 2.119 0 6.63-2.181 7.433-3.206.67-.856 2.01-3.433 2.593-7.371-.428 1.363-1.853 5.272-4.118 5.272z" fill="#690102"/><path d="M28.082 34.07c.694 0 1.26-.297 1.26-.657h-2.507c0 .36.55.657 1.247.657z" fill="#FFF"/></g></g><g transform="translate(27.283 100.666)" fill-rule="nonzero"><rect fill="url(#g)" x="23.52" width="81.85" height="2.822" rx="1.411"/><rect fill="#C4D4E8" x="37.632" y="11.29" width="52.685" height="2.822" rx="1.411"/><path d="M32.623 29.578l1.486 3.148c.103.219.303.37.534.405l3.322.505c.582.089.814.836.393 1.265l-2.404 2.45a.763.763 0 00-.204.657l.568 3.46c.099.605-.51 1.067-1.03.781l-2.97-1.633a.683.683 0 00-.66 0l-2.972 1.633c-.52.286-1.129-.176-1.03-.782l.568-3.46a.763.763 0 00-.204-.656l-2.403-2.45c-.421-.429-.19-1.177.393-1.265l3.322-.505a.712.712 0 00.534-.405l1.485-3.148a.696.696 0 011.272 0zm16.021 0l1.486 3.148c.103.219.303.37.534.405l3.322.505c.582.089.814.836.393 1.265l-2.404 2.45a.763.763 0 00-.203.657l.567 3.46c.1.605-.509 1.067-1.03.781l-2.97-1.633a.683.683 0 00-.66 0l-2.972 1.633c-.52.286-1.128-.176-1.029-.782l.568-3.46a.763.763 0 00-.204-.656l-2.404-2.45c-.421-.429-.189-1.177.393-1.265l3.322-.505a.712.712 0 00.534-.405l1.486-3.148a.696.696 0 011.271 0zm15.994 0l1.486 3.148c.103.219.303.37.534.405l3.322.505c.582.089.814.836.393 1.265l-2.404 2.45a.763.763 0 00-.204.657l.568 3.46c.099.605-.51 1.067-1.03.781l-2.97-1.633a.683.683 0 00-.661 0l-2.971 1.633c-.52.286-1.129-.176-1.03-.782l.568-3.46a.763.763 0 00-.204-.656l-2.403-2.45c-.421-.429-.19-1.177.393-1.265l3.322-.505a.712.712 0 00.534-.405l1.485-3.148a.696.696 0 011.272 0zm15.994 0l1.485 3.148c.103.219.303.37.534.405l3.322.505c.582.089.814.836.393 1.265l-2.403 2.45a.763.763 0 00-.204.657l.567 3.46c.1.605-.509 1.067-1.03.781l-2.97-1.633a.683.683 0 00-.66 0l-2.971 1.633c-.52.286-1.13-.176-1.03-.782l.568-3.46a.763.763 0 00-.204-.656l-2.404-2.45c-.42-.429-.189-1.177.393-1.265l3.322-.505a.712.712 0 00.534-.405l1.486-3.148a.696.696 0 011.272 0zm15.993 0l1.486 3.148c.103.219.303.37.534.405l3.322.505c.582.089.814.836.393 1.265l-2.404 2.45a.763.763 0 00-.204.657l.568 3.46c.1.605-.51 1.067-1.03.781l-2.97-1.633a.683.683 0 00-.66 0l-2.972 1.633c-.52.286-1.128-.176-1.029-.782l.567-3.46a.763.763 0 00-.204-.656l-2.403-2.45c-.421-.429-.189-1.177.393-1.265l3.322-.505a.712.712 0 00.534-.405l1.485-3.148a.696.696 0 011.272 0z" fill="url(#h)"/><path d="M1.411 54.566h125.127a1.411 1.411 0 010 2.823H1.41a1.411 1.411 0 110-2.823zM20.227 66.797h87.495a1.411 1.411 0 010 2.822H20.227a1.411 1.411 0 110-2.822z" fill="#C4D4E8"/></g></g><g><path d="M348.77 145.742c-2.984-4.876-5.01-8.569-6.08-11.079-5.331-12.518-20.09-21.356-39.55-28.003-1.405 0-7 7.783-10.726 10.286-2.484 1.668 7.889 9.55 31.118 23.648l25.238 5.148z" fill="#FFF" fill-rule="nonzero"/><path d="M34.083 61.86l2.187-5.483 41.033-41.054 3.205.958c4.034 8.65 4.76 16.742 2.176 24.275 0 1.35.587 23.183-11.432 33.248-.883 0-5.248.127-7.004-.766-1.17-.595-2.538 1.367-4.102 5.885L34.083 61.86z" fill="url(#p)" fill-rule="nonzero" transform="translate(269.058 44.8)"/><path d="M303.78 103.55c9.256 2.058 16.147 1.877 20.675-.542 6.79-3.628 11.788-17.365 15.31-17.365 2.349 0 4.709 1.3 7.08 3.9.288-7.163.68-11.08 1.178-11.753.498-.672.498-5.568 0-14.686 4.96-3.371 7.405-7.083 7.337-11.135 0-3.515-3.08-7.169-18.276-7.169-15.197 0-34.722 9.935-34.722 26.566 0 6.64 1.933 12.639 2.272 19.021.151 2.85-.133 7.237-.854 13.163z" fill="#001E43" fill-rule="nonzero"/><path d="M290.651 523.2c-.502-22.221-1.358-38.688-2.566-49.4-4.303-38.13-10.216-59.883 0-74.198 0-2.156 1.403-26.295 0-72.984-.264-8.773-1.418-23.795-3.46-45.067h85.698c2.048 24.04 2.892 46.246 2.532 66.615-.54 30.554-2.721 50.422-4.78 60.581-2.057 10.16-3.564 7.398-7.218 24.63-3.654 17.234-4.345 21.335-6.14 38.257-1.197 11.282.304 28.47 4.503 51.565-3.16 4.072-6.325 6.108-9.498 6.108-3.173 0-10.398-2.036-21.674-6.108 1.746-9.86 2.569-17.292 2.468-22.297-.492-24.419-3.397-43.982-2.468-54.214 1.214-13.377 4.094-26.024 8.641-37.94l-8.641-78.58-1.671 31.276-4.553 34.04-6 13.263c-1.313 24.2-2.136 42.34-2.468 54.42-.331 12.08-1.02 26.136-2.067 42.17l4.726 13.624c1.181 6.778-.394 10.528-4.726 11.252-4.332.724-11.211-1.614-20.638-7.014z" fill="#FFF" fill-rule="nonzero"/><g transform="translate(282.229 281.55)"><mask id="r" fill="#fff"><use xlink:href="#q"/></mask><g fill="#D9E9FF" fill-rule="nonzero" mask="url(#r)"><path d="M4.278 15.384c15.904 1.519 23.855 3.561 23.855 6.126 0 3.848 4.866 56.557-5.36 84.296-10.226 27.738 2.365 117.648 0 123.755-1.577 4.071-13.558 4.071-35.944 0L4.279 15.384zM35.662 22.276l9.792 17.913 1.905 75.225-5.848 96.574v20.299l17.63 6.253h6.426c-2.274-58.33-.826-94.374 4.344-108.132 7.755-20.637 12.11-96.03 1.784-101.081-6.884-3.367-18.895-5.717-36.033-7.05z"/></g></g><path d="M290.651 523.2a3585.16 3585.16 0 00-.38-13.597c-.046-1.47 5.186-2.561 10.472-1.46 2.255.471 6.172.693 11.75.666l3.522 10.152c1.181 6.778-.394 10.528-4.726 11.252-4.332.724-11.211-1.614-20.638-7.014zM357.148 510.425c.376 2.43 1.568 4.251 3.575 5.466-4.161 8.944-7.828 13.416-11.001 13.416-3.173 0-10.398-2.036-21.674-6.108 1.029-6.294 1.68-10.699 1.953-13.212.393-3.609 7.624-1.14 13.633-1.32 6.442-.194 12.786-2.947 13.514 1.758z" fill="#BBD0FA" fill-rule="nonzero"/><path d="M12.625 242.454c1.238-30.961 1.1-51.623-.416-61.984C9.707 163.36-2.014 140.282.3 113.184 1.845 95.12 9.53 81.44 23.357 72.146c18.295 3.333 30.727 6.678 37.297 10.034 6.569 3.357 12.922 9.611 19.058 18.762 7.143 26.35 12.324 49.67 15.545 69.965 3.22 20.295 6.094 47.37 8.621 81.227l-10.724 2.78a90.317 90.317 0 01-32.172 2.386l-39.106-4.142a10.349 10.349 0 01-9.25-10.704z" fill="url(#s)" fill-rule="nonzero" transform="translate(269.058 44.8)"/><path d="M326.193 157.575c-8.302 4.603-3.408 34.928 6.605 53.307 10.014 18.378 4.345 54.138 37.525 41.57 33.18-12.566-22.277-24.74-23.547-38.972-1.27-14.232-12.28-60.508-20.583-55.905z" fill="#000" fill-rule="nonzero" opacity=".081"/><path d="M440.457 171.984c-2.349 8.99-1.051 13.77-3.59 16.14-1.66 1.551-5.831 6.008-12.51 13.37l-.374.412c-8.921 13.81-15.852 23.751-20.791 29.822-1.638 2.012-2.927 3.634-4.053 5.03-.24-8.97-.25-33.6 4.053-36.942 14.457-11.23 7.513-5.471 8.494-5.471l22.644-23.707c1.692-4.02 2.538-6.529 2.538-7.528 0-1.498 5.937-.116 3.589 8.874z" fill="#D9E9FF" fill-rule="nonzero"/><path d="M337.68 141.497c-7.015.96-13.225 7.713-13.225 27.326s7.762 24.444 13.225 40.322c5.462 15.878 5.462 23.665 12.522 32.379 7.06 8.713 12.424 10.642 17.025 10.642 4.601 0 5.663-.615 15.971-8.915 10.308-8.3 10.584-9.418 17.994-18.523 4.94-6.07 11.87-16.011 20.79-29.822-6.925-5.04-11.023-7.561-12.296-7.561-.98 0-7.236 8.718-21.694 19.947-2.868 2.228-8.256 5.033-16.164 8.415l-8.76-24.503c-.907-14.163-2.525-24.29-4.853-30.382-3.493-9.139-13.521-20.286-20.535-19.325z" fill="#FFF" fill-rule="nonzero"/><path d="M337.68 141.497c-7.015.96-13.225 7.713-13.225 27.326s7.762 24.444 13.225 40.322c5.462 15.878 5.462 23.665 12.522 32.379 7.06 8.713 12.424 10.642 17.025 10.642 4.601 0 5.663-.615 15.971-8.915 10.308-8.3 10.584-9.418 17.994-18.523 4.94-6.07 11.87-16.011 20.79-29.822-6.925-5.04-11.023-7.561-12.296-7.561-.98 0-7.236 8.718-21.694 19.947-2.868 2.228-8.256 5.033-16.164 8.415l-8.76-24.503c-.907-14.163-2.525-24.29-4.853-30.382-3.493-9.139-13.521-20.286-20.535-19.325z" fill="#FFF" fill-rule="nonzero"/><g transform="translate(323.624 141.438)"><mask id="u" fill="#fff"><use xlink:href="#t"/></mask><path d="M2.929 9.672c5.432 5.361 8.777 13.831 10.034 25.41C14.849 52.448 23.65 75.93 25.611 78.475c1.961 2.545 16.61 24.463 13.399 31.233-1.552 3.272-12.953-1.862-28.893-24.133-4.03-5.63-10.225-17.367-18.584-35.21L2.929 9.672z" fill="#D9E9FF" fill-rule="nonzero" mask="url(#u)"/></g><g transform="translate(323.624 141.438)"><mask id="w" fill="#fff"><use xlink:href="#v"/></mask><path d="M48.204 74.269c9.423 3.93 23.598-4.583 42.527-25.538 2.168-3.054-1.364-5.446-10.597-7.176L48.204 74.27z" fill="#D9E9FF" fill-rule="nonzero" mask="url(#w)"/></g><path d="M116.965 108.55c10.389-9.183 15.902-13.774 16.537-13.774.954 0 6.25-.523 9.496-1.482 3.247-.958 20.038-6.643 18.892-3.321-1.145 3.321-18.807 10.009-18.017 10.97.79.96 7.213-2.648 8.132-1.324.92 1.323-.181 6.59-14.382 16.383-2.11 0-8.639 4.43-12.096 2.215-2.305-1.476-5.159-4.699-8.562-9.667z" fill="url(#x)" fill-rule="nonzero" transform="translate(269.058 44.8)"/><path d="M353.985 175.773l32.037-22.423c2.699.275 4.652.874 5.86 1.798 2.288 1.749 3.277 7.045 2.367 9.423-1.35 3.525-11.133 13.913-29.351 31.164-2.733-4.742-6.371-11.396-10.913-19.962z" fill="#F8FBFF" fill-rule="nonzero"/><g transform="translate(353.592 153.024)"><mask id="z" fill="#fff"><use xlink:href="#y"/></mask><path fill="#D9E9FF" fill-rule="nonzero" mask="url(#z)" d="M.608 32.803L36.47 4.23 32.43-9.408-4.822 17.149z"/></g><path d="M327.683 537.293c-9.172-1.31-15.528-3.237-19.07-5.783-5.313-3.818-3.914-14.974-9.586-14.974-5.671 0-11.096 3.106-10.703 20.757 0 2.562 10.781 4.762 32.344 6.597l7.015-6.597z" fill="#1E2764" fill-rule="nonzero"/><path d="M288.304 537.293c-.888 5.593.558 8.39 4.339 8.39h50.955L331.36 539.8c-14.01.279-23.41.279-28.2 0-4.789-.28-9.741-1.115-14.857-2.507z" fill="#FFF" fill-rule="nonzero"/><path d="M325.552 531.37c-5.607-6.656-8.786-10.792-9.537-12.409-1.126-2.425-.118 3.34-1.68 3.34-.824 0-4.426.592-7.852-.924-3.07-1.358-4.14-4.841-7.456-4.841-2.132 0 .857 6.919 8.966 20.757h18.745l-1.186-5.924z" fill="#2A3789" fill-rule="nonzero"/><path d="M140.628 142.545c4.559-19.771 11.077-30.682 19.555-32.733.946 0 .946 3.937-3.222 9.026-2.778 3.392-.675 3.392 6.31 0 1.693-4.02 2.539-6.528 2.539-7.528 0-1.498 5.938-.116 3.59 8.874-2.35 8.99-1.052 13.77-3.59 16.14-1.692 1.58-5.987 6.174-12.885 13.782l-12.297-7.561z" fill="url(#A)" fill-rule="nonzero" transform="translate(269.058 44.8)"/><path d="M396.498 540.319c-.22-3.554-2.36-6.333-6.417-8.338-6.086-3.007-14.376-1.152-17.86-3.658-2.321-1.67-6.154-5.815-11.498-12.432-1.832.633-2.748 1.822-2.748 3.564 0 2.613-2.678 7.62-9.537 7.62-6.858 0-15.495-6.471-18.125-6.471-2.63 0-6.458 1.303-7.335 16.689 0 1.126 1.569 2.135 4.705 3.026l60.265 2.403 8.55-2.403z" fill="#1E2764" fill-rule="nonzero"/><path d="M392.392 533.353a16.465 16.465 0 00-2.31-1.372c-6.087-3.007-14.377-1.152-17.86-3.658-2.322-1.67-6.155-5.815-11.499-12.432-1.832.633-2.748 1.822-2.748 3.564 0 2.613-2.678 7.62-9.537 7.62-3.517 0 7.978 6.508 20.474 8.34 11.873 1.74 24.729-1.166 23.48-2.062z" fill="#2A3789" fill-rule="nonzero"/><path d="M322.978 537.293c-1.382 5.432-1.382 8.148 0 8.148 2.075 0 65.26.717 69.39 0 2.753-.479 4.13-2.084 4.13-4.816-.807-.6-2.783-.6-5.928 0-2.14.409-13.758 1.584-33.84.409-6.293-.369-17.543-1.616-33.752-3.741z" fill="#FFF" fill-rule="nonzero"/></g><g fill-rule="nonzero"><path fill="#B8C7E6" d="M102.064 543.953l46.263-134.358h-5.56L96.504 543.953z"/><g fill="#B8C7E6"><path d="M250.603 543.953L204.34 409.595h5.56l46.263 134.358zM209.864 543.953l-17.412-134.358h5.56l17.411 134.358z"/></g><path fill="#B8C7E6" d="M142.804 543.953l17.412-134.358h-5.56l-17.412 134.358z"/><path d="M253.922 400.696c5.797-5.638 4.741-8.612-3.168-8.922-11.863-.466-50.4.966-55.016 0s-15.038-1.924-20.313-22.491c-5.275-20.567-29.354-66-43.274-78.862-4.75-4.39-12.96-6.56-24.826-6.56-18.722 0-32.362-2.236-35.491 6.56-3.035 8.53 13.863 19.134 50.695 31.812l36.562 75.813 62.323 7.596 32.508-4.946z" fill="#D8D8D8"/><path d="M255.412 399.248c-5.55 8.167-34.334 12.251-86.352 12.251-75.59 0-75.854-19.61-79.307-28.535-3.454-8.925-18.587-83.13-19.156-87.233-.569-4.103.595-9.78 20.724-9.78 20.13 0 32.654-1.243 42.785 17.224 4.801 8.751 15.171 28.358 23.273 47.786 8.994 21.57 13.052 41.21 21.081 44.6 11.742 4.958 21.72 6.092 60.168 5.005 4.677-.133 17.175-1.893 16.784-1.318z" fill="#FFF"/></g></g></svg>